# xmcd
#
# Track frame offsets:
#	150
#	80220
#	101019
#	112769
#	136630
#	160356
#	248024
#	268229
#	288426
#	307492
#
# Disc length: 4487 seconds
#
# Revision: 0
# Processed by: cddbd v1.5.2PL0 Copyright (c) Steve Scherf et al.
# Submitted via: audiograbber 1.83.01
#
DISCID=8e11850a
DTITLE=Die Skalden - Krywan, Krywan - Stworzenia swiata czesc druga
DYEAR=1972
DGENRE=PL
TTITLE0=Krywaniu, Krywaniu
TTITLE1=Juhas zmarl
TTITLE2=Jeszcze kocham
TTITLE3=Gdzie mam ciebie szukac
TTITLE4=Fioletowa dama
TTITLE5=Stworzenia swiata czesc druga
TTITLE6=Nasza milosc jak wiatr halny
TTITLE7=Milosc przez wieki sie nie zmienia
TTITLE8=Przechodzac obok siebie
TTITLE9=Jak znikajacy punkt
EXTD=
EXTT0=
EXTT1=
EXTT2=
EXTT3=
EXTT4=
EXTT5=
EXTT6=
EXTT7=
EXTT8=
EXTT9=
PLAYORDER=
